<svg xmlns="http://www.w3.org/2000/svg" xmlns:xlink="http://www.w3.org/1999/xlink" width="500" zoomAndPan="magnify" viewBox="0 0 375 374.999991" height="500" preserveAspectRatio="xMidYMid meet" version="1.0"><defs><g/><clipPath id="b91791eaf7"><path d="M 46.59375 107 L 328.023438 107 L 328.023438 348.292969 L 46.59375 348.292969 Z M 46.59375 107 " clip-rule="nonzero"/></clipPath><clipPath id="4b689c84ef"><path d="M 46.59375 27.152344 L 327 27.152344 L 327 136 L 46.59375 136 Z M 46.59375 27.152344 " clip-rule="nonzero"/></clipPath></defs><g clip-path="url(#b91791eaf7)"><path fill="#28b78d" d="M 326.210938 107.382812 L 328.117188 267.292969 L 194.558594 346.800781 C 191.289062 348.746094 187.25 348.789062 183.945312 346.929688 L 48.511719 270.660156 L 46.59375 110.761719 L 91.316406 135.949219 L 91.324219 135.949219 L 92.621094 244.398438 L 183.332031 295.488281 C 186.636719 297.347656 190.679688 297.292969 193.9375 295.359375 L 283.398438 242.105469 L 282.082031 132.636719 L 282.964844 133.125 L 326.210938 107.382812 " fill-opacity="1" fillRule="nonzero"/></g><g clip-path="url(#4b689c84ef)"><path fill="#f7f7f7" d="M 46.59375 110.761719 L 180.035156 29.355469 C 183.351562 27.332031 187.492188 27.285156 190.851562 29.21875 L 326.210938 107.402344 L 282.101562 133.65625 L 191.507812 80.734375 C 188.128906 78.753906 183.945312 78.808594 180.613281 80.859375 L 91.324219 135.949219 L 46.59375 110.761719 " fill-opacity="1" fillRule="nonzero"/></g><g fill="#28b78d" fill-opacity="1"><g transform="translate(135.900951, 236.361773)"><g><path d="M 70.234375 -99.320312 L 70.234375 -61.011719 L 32.777344 -61.011719 L 32.777344 -99.320312 L 11.351562 -99.320312 L 11.351562 0 L 32.777344 0 L 32.777344 -41.003906 L 70.234375 -41.003906 L 70.234375 0 L 91.660156 0 L 91.660156 -99.320312 Z M 70.234375 -99.320312 "/></g></g></g></svg>